# MagicaVoxel @ Ephtracy

# group
o 

# material
mtllib Tree_burned.mtl
usemtl palette

# normals
vn -1 0 0
vn 1 0 0
vn 0 0 1
vn 0 0 -1
vn 0 -1 0
vn 0 1 0

# texcoords
vt 0.583984 0.5
vt 0.974609 0.5
vt 0.978516 0.5
vt 0.982422 0.5

# verts
v -0.6 1.7 0.6
v -0.6 1.7 -0.6
v -0.6 2.2 0.6
v -0.6 2.2 -0.6
v -0.6 3 0.6
v -0.6 3 -0.6
v -0.0999999 0 0.0999999
v -0.0999999 0 -0.1
v -0.0999999 1.7 0.0999999
v -0.0999999 1.7 -0.1
v 0.1 0 0.0999999
v 0.1 0 -0.1
v 0.1 1.7 0.0999999
v 0.1 1.7 -0.1
v 0.6 1.7 0.6
v 0.6 1.7 -0.6
v 0.6 2.2 0.6
v 0.6 2.2 -0.6
v 0.6 3 0.6
v 0.6 3 -0.6
v -0.6 1.7 0.6
v -0.6 2.2 0.6
v -0.6 3 0.6
v 0.6 1.7 0.6
v 0.6 2.2 0.6
v 0.6 3 0.6
v -0.0999999 0 0.0999999
v -0.0999999 1.7 0.0999999
v 0.1 0 0.0999999
v 0.1 1.7 0.0999999
v -0.0999999 0 -0.1
v -0.0999999 1.7 -0.1
v 0.1 0 -0.1
v 0.1 1.7 -0.1
v -0.6 1.7 -0.6
v -0.6 2.2 -0.6
v -0.6 3 -0.6
v 0.6 1.7 -0.6
v 0.6 2.2 -0.6
v 0.6 3 -0.6
v -0.0999999 0 0.0999999
v 0.1 0 0.0999999
v -0.0999999 0 -0.1
v 0.1 0 -0.1
v -0.6 1.7 0.6
v 0.6 1.7 0.6
v -0.0999999 1.7 0.0999999
v 0.1 1.7 0.0999999
v -0.0999999 1.7 -0.1
v 0.1 1.7 -0.1
v -0.6 1.7 -0.6
v 0.6 1.7 -0.6
v -0.6 3 0.6
v 0.6 3 0.6
v -0.6 3 -0.6
v 0.6 3 -0.6

# faces
f 3/3/1 2/3/1 1/3/1
f 4/3/1 2/3/1 3/3/1
f 5/4/1 4/4/1 3/4/1
f 6/4/1 4/4/1 5/4/1
f 9/2/1 8/2/1 7/2/1
f 10/2/1 8/2/1 9/2/1
f 11/2/2 12/2/2 13/2/2
f 13/2/2 12/2/2 14/2/2
f 15/3/2 16/3/2 17/3/2
f 17/3/2 16/3/2 18/3/2
f 17/4/2 18/4/2 19/4/2
f 19/4/2 18/4/2 20/4/2
f 24/3/3 22/3/3 21/3/3
f 25/4/3 23/4/3 22/4/3
f 25/3/3 22/3/3 24/3/3
f 26/4/3 23/4/3 25/4/3
f 29/2/3 28/2/3 27/2/3
f 30/2/3 28/2/3 29/2/3
f 31/2/4 32/2/4 33/2/4
f 33/2/4 32/2/4 34/2/4
f 35/3/4 36/3/4 38/3/4
f 36/4/4 37/4/4 39/4/4
f 38/3/4 36/3/4 39/3/4
f 39/4/4 37/4/4 40/4/4
f 43/2/5 42/2/5 41/2/5
f 44/2/5 42/2/5 43/2/5
f 47/3/5 46/3/5 45/3/5
f 48/3/5 46/3/5 47/3/5
f 49/3/5 47/3/5 45/3/5
f 50/3/5 46/3/5 48/3/5
f 51/3/5 49/3/5 45/3/5
f 51/3/5 50/3/5 49/3/5
f 52/3/5 46/3/5 50/3/5
f 52/3/5 50/3/5 51/3/5
f 53/4/6 54/4/6 55/4/6
f 55/4/6 54/4/6 56/4/6
