# MagicaVoxel @ Ephtracy

# group
o 

# material
mtllib Tree_Healthy.mtl
usemtl palette

# normals
vn -1 0 0
vn 1 0 0
vn 0 0 1
vn 0 0 -1
vn 0 -1 0
vn 0 1 0

# texcoords
vt 0.583984 0.5
vt 0.970703 0.5
vt 0.974609 0.5

# verts
v -0.6 1.7 0.6
v -0.6 1.7 -0.6
v -0.6 3 0.6
v -0.6 3 -0.6
v -0.0999999 0 0.0999999
v -0.0999999 0 -0.1
v -0.0999999 1.7 0.0999999
v -0.0999999 1.7 -0.1
v 0.1 0 0.0999999
v 0.1 0 -0.1
v 0.1 1.7 0.0999999
v 0.1 1.7 -0.1
v 0.6 1.7 0.6
v 0.6 1.7 -0.6
v 0.6 3 0.6
v 0.6 3 -0.6
v -0.6 1.7 0.6
v -0.6 3 0.6
v 0.6 1.7 0.6
v 0.6 3 0.6
v -0.0999999 0 0.0999999
v -0.0999999 1.7 0.0999999
v 0.1 0 0.0999999
v 0.1 1.7 0.0999999
v -0.0999999 0 -0.1
v -0.0999999 1.7 -0.1
v 0.1 0 -0.1
v 0.1 1.7 -0.1
v -0.6 1.7 -0.6
v -0.6 3 -0.6
v 0.6 1.7 -0.6
v 0.6 3 -0.6
v -0.0999999 0 0.0999999
v 0.1 0 0.0999999
v -0.0999999 0 -0.1
v 0.1 0 -0.1
v -0.6 1.7 0.6
v 0.6 1.7 0.6
v -0.0999999 1.7 0.0999999
v 0.1 1.7 0.0999999
v -0.0999999 1.7 -0.1
v 0.1 1.7 -0.1
v -0.6 1.7 -0.6
v 0.6 1.7 -0.6
v -0.6 3 0.6
v 0.6 3 0.6
v -0.6 3 -0.6
v 0.6 3 -0.6

# faces
f 3/2/1 2/2/1 1/2/1
f 4/2/1 2/2/1 3/2/1
f 7/3/1 6/3/1 5/3/1
f 8/3/1 6/3/1 7/3/1
f 9/3/2 10/3/2 11/3/2
f 11/3/2 10/3/2 12/3/2
f 13/2/2 14/2/2 15/2/2
f 15/2/2 14/2/2 16/2/2
f 19/2/3 18/2/3 17/2/3
f 20/2/3 18/2/3 19/2/3
f 23/3/3 22/3/3 21/3/3
f 24/3/3 22/3/3 23/3/3
f 25/3/4 26/3/4 27/3/4
f 27/3/4 26/3/4 28/3/4
f 29/2/4 30/2/4 31/2/4
f 31/2/4 30/2/4 32/2/4
f 35/3/5 34/3/5 33/3/5
f 36/3/5 34/3/5 35/3/5
f 39/2/5 38/2/5 37/2/5
f 40/2/5 38/2/5 39/2/5
f 41/2/5 39/2/5 37/2/5
f 42/2/5 38/2/5 40/2/5
f 43/2/5 41/2/5 37/2/5
f 43/2/5 42/2/5 41/2/5
f 44/2/5 38/2/5 42/2/5
f 44/2/5 42/2/5 43/2/5
f 45/2/6 46/2/6 47/2/6
f 47/2/6 46/2/6 48/2/6
