# MagicaVoxel @ Ephtracy

# group
o 

# material
mtllib Dolphin_Attack.mtl
usemtl palette

# normals
vn -1 0 0
vn 1 0 0
vn 0 0 1
vn 0 0 -1
vn 0 -1 0
vn 0 1 0

# texcoords
vt 0.939453 0.5
vt 0.943359 0.5
vt 0.974609 0.5

# verts
v -0.7 0 0
v -0.7 0 -0.1
v -0.7 0.1 0
v -0.7 0.1 -0.1
v -0.5 0 0.1
v -0.5 0 0
v -0.5 0 -0.1
v -0.5 0 -0.2
v -0.5 0.1 0.1
v -0.5 0.1 0
v -0.5 0.1 -0.1
v -0.5 0.1 -0.2
v -0.5 0.2 0.1
v -0.5 0.2 0
v -0.5 0.2 -0.1
v -0.5 0.2 -0.2
v -0.4 0.2 0
v -0.4 0.2 -0.1
v -0.4 0.3 0
v -0.4 0.3 -0.1
v -0.3 0.3 0
v -0.3 0.3 -0.1
v -0.3 0.4 0
v -0.3 0.4 -0.1
v -0.1 0.1 0.2
v -0.1 0.1 0.1
v -0.1 0.1 -0.2
v -0.1 0.1 -0.3
v -0.1 0.2 0.2
v -0.1 0.2 0.1
v -0.1 0.2 -0.2
v -0.1 0.2 -0.3
v -0.2 0.2 0
v -0.2 0.2 -0.1
v -0.2 0.3 0
v -0.2 0.3 -0.1
v -0.2 0.4 0
v -0.2 0.4 -0.1
v 0 0 0.1
v 0 0 -0.2
v 0 0.1 0.1
v 0 0.1 0
v 0 0.1 -0.1
v 0 0.1 -0.2
v 0 0.2 0.1
v 0 0.2 0
v 0 0.2 -0.1
v 0 0.2 -0.2
v 0.2 0.1 0.2
v 0.2 0.1 0.1
v 0.2 0.1 -0.2
v 0.2 0.1 -0.3
v 0.2 0.2 0.2
v 0.2 0.2 0.1
v 0.2 0.2 -0.2
v 0.2 0.2 -0.3
v -0.1 0.1 0.2
v -0.1 0.2 0.2
v 0.1 0.1 0.2
v 0.1 0.2 0.2
v 0.2 0.1 0.2
v 0.2 0.2 0.2
v -0.5 0 0.1
v -0.5 0.1 0.1
v -0.5 0.2 0.1
v -0.4 0 0.1
v -0.4 0.1 0.1
v -0.4 0.2 0.1
v -0.3 0 0.1
v -0.3 0.1 0.1
v -0.3 0.2 0.1
v -0.2 0 0.1
v -0.2 0.1 0.1
v -0.2 0.2 0.1
v -0.1 0 0.1
v -0.1 0.1 0.1
v -0.1 0.2 0.1
v 0 0 0.1
v 0 0.1 0.1
v -0.7 0 0
v -0.7 0.1 0
v -0.5 0 0
v -0.5 0.1 0
v -0.4 0.2 0
v -0.4 0.3 0
v -0.3 0.2 0
v -0.3 0.3 0
v -0.3 0.4 0
v -0.2 0.2 0
v -0.2 0.3 0
v -0.2 0.4 0
v 0 0.1 -0.2
v 0 0.2 -0.2
v 0.1 0.1 -0.2
v 0.1 0.2 -0.2
v 0.2 0.1 -0.2
v 0.2 0.2 -0.2
v 0 0.1 0.1
v 0 0.2 0.1
v 0.1 0.1 0.1
v 0.1 0.2 0.1
v 0.2 0.1 0.1
v 0.2 0.2 0.1
v -0.7 0 -0.1
v -0.7 0.1 -0.1
v -0.5 0 -0.1
v -0.5 0.1 -0.1
v -0.4 0.2 -0.1
v -0.4 0.3 -0.1
v -0.3 0.2 -0.1
v -0.3 0.3 -0.1
v -0.3 0.4 -0.1
v -0.2 0.2 -0.1
v -0.2 0.3 -0.1
v -0.2 0.4 -0.1
v -0.5 0 -0.2
v -0.5 0.1 -0.2
v -0.5 0.2 -0.2
v -0.4 0 -0.2
v -0.4 0.1 -0.2
v -0.4 0.2 -0.2
v -0.3 0 -0.2
v -0.3 0.1 -0.2
v -0.3 0.2 -0.2
v -0.2 0 -0.2
v -0.2 0.1 -0.2
v -0.2 0.2 -0.2
v -0.1 0 -0.2
v -0.1 0.1 -0.2
v -0.1 0.2 -0.2
v 0 0 -0.2
v 0 0.1 -0.2
v -0.1 0.1 -0.3
v -0.1 0.2 -0.3
v 0.1 0.1 -0.3
v 0.1 0.2 -0.3
v 0.2 0.1 -0.3
v 0.2 0.2 -0.3
v -0.5 0 0.1
v -0.4 0 0.1
v -0.3 0 0.1
v -0.2 0 0.1
v -0.1 0 0.1
v 0 0 0.1
v -0.7 0 0
v -0.5 0 0
v -0.4 0 0
v -0.3 0 0
v -0.2 0 0
v -0.1 0 0
v -0.7 0 -0.1
v -0.5 0 -0.1
v -0.4 0 -0.1
v -0.3 0 -0.1
v -0.2 0 -0.1
v -0.1 0 -0.1
v -0.5 0 -0.2
v -0.4 0 -0.2
v -0.3 0 -0.2
v -0.2 0 -0.2
v -0.1 0 -0.2
v 0 0 -0.2
v -0.1 0.1 0.2
v 0.1 0.1 0.2
v 0.2 0.1 0.2
v -0.1 0.1 0.1
v 0 0.1 0.1
v 0.1 0.1 0.1
v 0.2 0.1 0.1
v -0.1 0.1 -0.2
v 0 0.1 -0.2
v 0.1 0.1 -0.2
v 0.2 0.1 -0.2
v -0.1 0.1 -0.3
v 0.1 0.1 -0.3
v 0.2 0.1 -0.3
v -0.7 0.1 0
v -0.5 0.1 0
v -0.7 0.1 -0.1
v -0.5 0.1 -0.1
v -0.1 0.2 0.2
v 0.1 0.2 0.2
v 0.2 0.2 0.2
v -0.5 0.2 0.1
v -0.4 0.2 0.1
v -0.3 0.2 0.1
v -0.2 0.2 0.1
v -0.1 0.2 0.1
v 0 0.2 0.1
v 0.1 0.2 0.1
v 0.2 0.2 0.1
v -0.5 0.2 0
v -0.4 0.2 0
v -0.3 0.2 0
v -0.2 0.2 0
v 0 0.2 0
v -0.5 0.2 -0.1
v -0.4 0.2 -0.1
v -0.3 0.2 -0.1
v -0.2 0.2 -0.1
v 0 0.2 -0.1
v -0.5 0.2 -0.2
v -0.4 0.2 -0.2
v -0.3 0.2 -0.2
v -0.2 0.2 -0.2
v -0.1 0.2 -0.2
v 0 0.2 -0.2
v 0.1 0.2 -0.2
v 0.2 0.2 -0.2
v -0.1 0.2 -0.3
v 0.1 0.2 -0.3
v 0.2 0.2 -0.3
v -0.4 0.3 0
v -0.3 0.3 0
v -0.4 0.3 -0.1
v -0.3 0.3 -0.1
v -0.3 0.4 0
v -0.2 0.4 0
v -0.3 0.4 -0.1
v -0.2 0.4 -0.1

# faces
f 3/3/1 2/3/1 1/3/1
f 4/3/1 2/3/1 3/3/1
f 9/2/1 6/2/1 5/2/1
f 10/2/1 6/2/1 9/2/1
f 11/2/1 8/2/1 7/2/1
f 12/2/1 8/2/1 11/2/1
f 13/1/1 10/1/1 9/1/1
f 14/3/1 11/3/1 10/3/1
f 14/1/1 10/1/1 13/1/1
f 15/1/1 12/1/1 11/1/1
f 15/3/1 11/3/1 14/3/1
f 16/1/1 12/1/1 15/1/1
f 19/3/1 18/3/1 17/3/1
f 20/3/1 18/3/1 19/3/1
f 23/1/1 22/1/1 21/1/1
f 24/1/1 22/1/1 23/1/1
f 29/2/1 26/2/1 25/2/1
f 30/2/1 26/2/1 29/2/1
f 31/2/1 28/2/1 27/2/1
f 32/2/1 28/2/1 31/2/1
f 33/2/2 34/2/2 35/2/2
f 35/2/2 34/2/2 36/2/2
f 35/1/2 36/1/2 37/1/2
f 37/1/2 36/1/2 38/1/2
f 39/3/2 40/3/2 41/3/2
f 41/3/2 40/3/2 42/3/2
f 42/3/2 40/3/2 43/3/2
f 43/3/2 40/3/2 44/3/2
f 41/3/2 42/3/2 45/3/2
f 42/2/2 43/2/2 46/2/2
f 45/3/2 42/3/2 46/3/2
f 43/3/2 44/3/2 47/3/2
f 46/2/2 43/2/2 47/2/2
f 47/3/2 44/3/2 48/3/2
f 49/1/2 50/1/2 53/1/2
f 53/1/2 50/1/2 54/1/2
f 51/1/2 52/1/2 55/1/2
f 55/1/2 52/1/2 56/1/2
f 59/2/3 58/2/3 57/2/3
f 60/2/3 58/2/3 59/2/3
f 61/1/3 60/1/3 59/1/3
f 62/1/3 60/1/3 61/1/3
f 66/2/3 64/2/3 63/2/3
f 67/1/3 65/1/3 64/1/3
f 67/2/3 64/2/3 66/2/3
f 68/1/3 65/1/3 67/1/3
f 69/1/3 67/1/3 66/1/3
f 70/3/3 68/3/3 67/3/3
f 70/1/3 67/1/3 69/1/3
f 71/3/3 68/3/3 70/3/3
f 72/3/3 70/3/3 69/3/3
f 73/1/3 71/1/3 70/1/3
f 73/3/3 70/3/3 72/3/3
f 74/1/3 71/1/3 73/1/3
f 75/1/3 73/1/3 72/1/3
f 76/3/3 74/3/3 73/3/3
f 76/1/3 73/1/3 75/1/3
f 77/3/3 74/3/3 76/3/3
f 78/3/3 76/3/3 75/3/3
f 79/3/3 76/3/3 78/3/3
f 82/3/3 81/3/3 80/3/3
f 83/3/3 81/3/3 82/3/3
f 86/3/3 85/3/3 84/3/3
f 87/3/3 85/3/3 86/3/3
f 89/2/3 87/2/3 86/2/3
f 90/1/3 88/1/3 87/1/3
f 90/2/3 87/2/3 89/2/3
f 91/1/3 88/1/3 90/1/3
f 94/2/3 93/2/3 92/2/3
f 95/2/3 93/2/3 94/2/3
f 96/1/3 95/1/3 94/1/3
f 97/1/3 95/1/3 96/1/3
f 98/2/4 99/2/4 100/2/4
f 100/2/4 99/2/4 101/2/4
f 100/1/4 101/1/4 102/1/4
f 102/1/4 101/1/4 103/1/4
f 104/3/4 105/3/4 106/3/4
f 106/3/4 105/3/4 107/3/4
f 108/3/4 109/3/4 110/3/4
f 110/3/4 109/3/4 111/3/4
f 110/2/4 111/2/4 113/2/4
f 111/1/4 112/1/4 114/1/4
f 113/2/4 111/2/4 114/2/4
f 114/1/4 112/1/4 115/1/4
f 116/2/4 117/2/4 119/2/4
f 117/1/4 118/1/4 120/1/4
f 119/2/4 117/2/4 120/2/4
f 120/1/4 118/1/4 121/1/4
f 119/1/4 120/1/4 122/1/4
f 120/3/4 121/3/4 123/3/4
f 122/1/4 120/1/4 123/1/4
f 123/3/4 121/3/4 124/3/4
f 122/3/4 123/3/4 125/3/4
f 123/1/4 124/1/4 126/1/4
f 125/3/4 123/3/4 126/3/4
f 126/1/4 124/1/4 127/1/4
f 125/1/4 126/1/4 128/1/4
f 126/3/4 127/3/4 129/3/4
f 128/1/4 126/1/4 129/1/4
f 129/3/4 127/3/4 130/3/4
f 128/3/4 129/3/4 131/3/4
f 131/3/4 129/3/4 132/3/4
f 133/2/4 134/2/4 135/2/4
f 135/2/4 134/2/4 136/2/4
f 135/1/4 136/1/4 137/1/4
f 137/1/4 136/1/4 138/1/4
f 146/2/5 140/2/5 139/2/5
f 147/1/5 141/1/5 140/1/5
f 147/2/5 140/2/5 146/2/5
f 148/3/5 142/3/5 141/3/5
f 148/1/5 141/1/5 147/1/5
f 149/1/5 143/1/5 142/1/5
f 149/3/5 142/3/5 148/3/5
f 150/3/5 144/3/5 143/3/5
f 150/1/5 143/1/5 149/1/5
f 151/3/5 149/3/5 148/3/5
f 151/3/5 146/3/5 145/3/5
f 151/3/5 150/3/5 149/3/5
f 151/3/5 147/3/5 146/3/5
f 151/3/5 148/3/5 147/3/5
f 152/3/5 150/3/5 151/3/5
f 153/3/5 150/3/5 152/3/5
f 154/3/5 150/3/5 153/3/5
f 155/3/5 150/3/5 154/3/5
f 156/3/5 144/3/5 150/3/5
f 156/3/5 150/3/5 155/3/5
f 157/2/5 153/2/5 152/2/5
f 158/1/5 154/1/5 153/1/5
f 158/2/5 153/2/5 157/2/5
f 159/3/5 155/3/5 154/3/5
f 159/1/5 154/1/5 158/1/5
f 160/1/5 156/1/5 155/1/5
f 160/3/5 155/3/5 159/3/5
f 161/3/5 144/3/5 156/3/5
f 161/1/5 156/1/5 160/1/5
f 162/3/5 144/3/5 161/3/5
f 166/2/5 164/2/5 163/2/5
f 167/2/5 164/2/5 166/2/5
f 168/1/5 165/1/5 164/1/5
f 168/2/5 164/2/5 167/2/5
f 169/1/5 165/1/5 168/1/5
f 174/2/5 171/2/5 170/2/5
f 174/2/5 172/2/5 171/2/5
f 175/1/5 173/1/5 172/1/5
f 175/2/5 172/2/5 174/2/5
f 176/1/5 173/1/5 175/1/5
f 177/3/6 178/3/6 179/3/6
f 179/3/6 178/3/6 180/3/6
f 181/2/6 182/2/6 188/2/6
f 188/2/6 182/2/6 189/2/6
f 182/1/6 183/1/6 190/1/6
f 189/2/6 182/2/6 190/2/6
f 190/1/6 183/1/6 191/1/6
f 184/1/6 185/1/6 192/1/6
f 185/3/6 186/3/6 193/3/6
f 192/1/6 185/1/6 193/1/6
f 186/1/6 187/1/6 194/1/6
f 193/3/6 186/3/6 194/3/6
f 188/3/6 189/3/6 195/3/6
f 194/1/6 187/1/6 195/1/6
f 187/3/6 188/3/6 195/3/6
f 195/3/6 189/3/6 196/3/6
f 192/3/6 193/3/6 197/3/6
f 197/3/6 193/3/6 198/3/6
f 195/2/6 196/2/6 200/2/6
f 200/2/6 196/2/6 201/2/6
f 197/1/6 198/1/6 202/1/6
f 198/3/6 199/3/6 203/3/6
f 202/1/6 198/1/6 203/1/6
f 199/1/6 200/1/6 204/1/6
f 203/3/6 199/3/6 204/3/6
f 200/3/6 201/3/6 205/3/6
f 204/1/6 200/1/6 205/1/6
f 205/3/6 201/3/6 206/3/6
f 206/3/6 201/3/6 207/3/6
f 206/2/6 207/2/6 210/2/6
f 207/2/6 208/2/6 210/2/6
f 208/1/6 209/1/6 211/1/6
f 210/2/6 208/2/6 211/2/6
f 211/1/6 209/1/6 212/1/6
f 213/3/6 214/3/6 215/3/6
f 215/3/6 214/3/6 216/3/6
f 217/1/6 218/1/6 219/1/6
f 219/1/6 218/1/6 220/1/6
